Coordinates
version=1
nRows=37
nColumns=19
inDegrees=yes

Units are S.I. units (second, meters, Newtons, ...)
If the header above contains a line with 'inDegrees', this indicates whether rotational values are in degrees (yes) or radians (no).

endheader
time	pelvis_obliquity	pelvis_rotation	pelvis_tilt	pelvis_to_ground_tx	pelvis_to_ground_ty	pelvis_to_ground_tz	left_hip_abduction	left_hip_rotation	left_hip_flexion	left_knee_flexion	left_ankle_flexion	left_subtalar_angle	right_hip_abduction	right_hip_rotation	right_hip_flexion	right_knee_flexion	right_ankle_flexion	right_subtalar_angle
      4.64000000	     98.17508912	     27.40819526	     -9.49955110	      0.14264356	     -0.60948891	      0.58835224	     -9.89692506	    -28.04887721	     -3.70448526	      5.12420960	    -15.02709192	     -8.90350984	    -11.38839179	     -7.86589385	     46.96166501	    -41.03508910	     -6.70718346	    -15.39512248
      4.65000000	     98.35996506	     27.74682596	     -9.35679838	      0.15180709	     -0.60884410	      0.58725670	    -10.21480426	    -28.12543244	     -4.48727116	      4.37282952	    -15.03430106	     -8.85843585	    -11.74967355	     -6.66064710	     46.19256677	    -38.92691634	     -6.73462403	    -15.42266946
      4.66000000	     98.44012379	     28.03217955	     -8.88752413	      0.16125395	     -0.60806393	      0.58606355	    -10.61414440	    -28.01897820	     -5.43866252	      3.29567439	    -15.08475594	     -8.77684283	    -11.90637363	     -5.56234802	     45.06982783	    -37.14190305	     -6.83480056	    -15.76596221
      4.67000000	     98.39639985	     28.22950759	     -8.60617269	      0.17090729	     -0.60728906	      0.58496896	    -10.80164392	    -27.94959608	     -5.96183855	      1.95034807	    -15.16240383	     -8.69192751	    -11.83870892	     -4.42494280	     44.07283627	    -35.53653886	     -6.81409256	    -16.18051942
      4.68000000	     98.20695550	     28.34835826	     -8.36480046	      0.18073348	     -0.60649986	      0.58394989	    -10.83352618	    -27.85700727	     -6.18524941	      0.29235241	    -15.28610572	     -8.61155808	    -11.51916696	     -3.36382834	     43.11299206	    -34.20442662	     -6.67699749	    -16.62350935
      4.69000000	     97.85637091	     28.41336025	     -8.21650922	      0.19068082	     -0.60573770	      0.58304764	    -10.65757180	    -27.75996273	     -6.01218136	     -1.69908964	    -15.40063668	     -8.32447855	    -10.94049508	     -2.43598433	     42.25441462	    -33.12976730	     -6.40978358	    -17.38572074
      4.70000000	     97.31714671	     28.34397420	     -7.99488824	      0.20070359	     -0.60497289	      0.58225672	    -10.35125596	    -27.57714533	     -5.66074753	     -3.93455690	    -15.66515347	     -8.32746523	    -10.12626248	     -1.52582311	     41.37365474	    -32.30478574	     -6.11446388	    -17.65050110
      4.71000000	     96.61463376	     28.20303033	     -7.87638599	      0.21073766	     -0.60428488	      0.58162614	     -9.81633680	    -27.32579354	     -4.87888417	     -6.47426088	    -15.99960277	     -8.24523997	     -9.10938723	     -0.72074929	     40.60821226	    -31.63783388	     -5.65038451	    -18.03871385
      4.72000000	     95.73744112	     27.97262454	     -7.79313307	      0.22076057	     -0.60367941	      0.58118039	     -9.08563647	    -27.00326042	     -3.78914024	     -9.22084038	    -16.38817501	     -8.12950525	     -7.91856748	      0.04868875	     39.88169722	    -31.04573909	     -5.13028631	    -18.37300092
      4.73000000	     94.71350014	     27.65821087	     -7.74083601	      0.23072272	     -0.60318256	      0.58093751	     -8.18402934	    -26.59248279	     -2.42495067	    -12.12205687	    -16.82253721	     -7.99734662	     -6.60805276	      0.81119874	     39.16555865	    -30.45027027	     -4.59005649	    -18.61463254
      4.74000000	     93.59771180	     27.25401849	     -7.85667808	      0.24058292	     -0.60282845	      0.58094729	     -7.09750977	    -26.08944982	     -0.67673292	    -15.11319116	    -17.29527895	     -7.54991730	     -5.27725080	      1.68162386	     38.54616309	    -29.72926433	     -3.85524937	    -18.82944484
      4.75000000	     92.34733466	     26.78256016	     -7.78364049	      0.25035131	     -0.60258708	      0.58113455	     -5.92807106	    -25.35918271	      1.06248753	    -18.16443383	    -17.75163881	     -7.53596661	     -3.81730985	      2.43168465	     37.71068980	    -28.92702742	     -3.43841371	    -18.78850182
      4.76000000	     91.12351242	     26.23208744	     -7.99756631	      0.25994942	     -0.60252611	      0.58164738	     -4.65164289	    -24.57375443	      3.19385917	    -21.15855825	    -18.28314112	     -7.22826089	     -2.48039112	      3.37027810	     37.00256153	    -27.82774310	     -2.84034298	    -18.65963944
      4.77000000	     89.85480608	     25.62931819	     -8.03026107	      0.26942205	     -0.60261502	      0.58234052	     -3.37510314	    -23.55760531	      5.23047351	    -24.09986250	    -18.69613763	     -7.29337035	     -1.09571676	      4.21853647	     36.04283062	    -26.57738965	     -2.50376082	    -18.44742050
      4.78000000	     88.69258587	     24.96837520	     -8.25347273	      0.27871194	     -0.60285820	      0.58332378	     -2.12756179	    -22.46092417	      7.46239179	    -26.88509295	    -19.09308181	     -7.35407587	      0.13152156	      5.16546869	     35.10054457	    -25.03447734	     -2.18953099	    -18.15037234
      4.79000000	     87.63529234	     24.27239708	     -8.52110005	      0.28782244	     -0.60326420	      0.58453286	     -0.96764611	    -21.27615067	      9.72146886	    -29.50298900	    -19.42793359	     -7.48987659	      1.25174076	      6.10736647	     34.06186490	    -23.26473109	     -1.95468689	    -17.78976352
      4.80000000	     86.72334659	     23.54427959	     -8.83783357	      0.29676498	     -0.60380705	      0.58594356	      0.06131577	    -20.00268289	     11.97997650	    -31.91177202	    -19.67475460	     -7.74157217	      2.24174630	      7.02568259	     32.92362599	    -21.27793143	     -1.81926182	    -17.38687126
      4.81000000	     85.96744266	     22.78774234	     -9.16825460	      0.30551914	     -0.60447933	      0.58748650	      0.92680068	    -18.67476127	     14.19792735	    -34.12095957	    -19.81962575	     -8.13867052	      3.10110447	      7.93555292	     31.68414155	    -19.14780278	     -1.79565100	    -16.96452855
      4.82000000	     85.38902622	     22.01241217	     -9.50776507	      0.31408861	     -0.60525886	      0.58912615	      1.60526867	    -17.32939978	     16.35599859	    -36.10600309	    -19.85050400	     -8.70854424	      3.82276320	      8.80632845	     30.34972888	    -16.91216621	     -1.90416569	    -16.54681153
      4.83000000	     84.98570447	     21.23848530	     -9.87468582	      0.32247322	     -0.60611938	      0.59081457	      2.10389966	    -16.05638736	     18.47564727	    -37.86754028	    -19.71516929	     -9.93198157	      4.42064983	      9.57847502	     28.96607112	    -14.61999542	     -2.52073410	    -16.21149854
      4.84000000	     84.72866841	     20.40502534	    -10.14217834	      0.33068342	     -0.60702884	      0.59245808	      2.41130483	    -14.69443263	     20.45071465	    -39.42861758	    -19.62012131	    -10.49924508	      4.91923654	     10.33054552	     27.46465823	    -12.38307467	     -2.60718691	    -15.91205123
      4.85000000	     84.61227789	     19.54488013	    -10.40614725	      0.33869625	     -0.60796970	      0.59403600	      2.56754215	    -13.38149048	     22.39060790	    -40.79407837	    -19.35135151	    -11.27807647	      5.31216074	     11.01620802	     25.96615791	    -10.22949958	     -2.89916199	    -15.60279077
      4.86000000	     84.60184934	     18.71580384	    -10.64218268	      0.34653409	     -0.60892426	      0.59549755	      2.62036457	    -12.24336666	     24.29228682	    -41.98859075	    -18.84635361	    -12.73497035	      5.65177707	     11.51124323	     24.47878424	     -8.20776449	     -3.78573667	    -15.53068597
      4.87000000	     84.66966135	     17.78646561	    -10.80133075	      0.35420439	     -0.60983870	      0.59681244	      2.55975569	    -11.04207414	     26.10617337	    -43.01227397	    -18.63572242	    -13.25015368	      5.91096253	     12.05533616	     22.99121103	     -6.37909427	     -3.92170628	    -15.25943813
      4.88000000	     84.77438070	     16.83929298	    -10.92383810	      0.36172599	     -0.61070976	      0.59795267	      2.46723189	     -9.94090746	     27.90165659	    -43.89329886	    -18.23072419	    -13.93779660	      6.13804659	     12.53594631	     21.55382989	     -4.73509345	     -4.25316857	    -14.98153408
      4.89000000	     84.88989108	     15.93475801	    -11.02636967	      0.36912658	     -0.61154316	      0.59890970	      2.39908979	     -9.06427846	     29.70257483	    -44.63868155	    -17.68601907	    -14.81270394	      6.36473645	     12.88672955	     20.17690336	     -3.24471696	     -4.83486134	    -14.81236916
      4.90000000	     84.98956001	     14.91139322	    -11.05133192	      0.37640362	     -0.61228084	      0.59965617	      2.33360420	     -8.09785946	     31.44751058	    -45.25123666	    -17.38027193	    -15.27500024	      6.57652011	     13.27231374	     18.86846168	     -2.04247469	     -5.08959997	    -14.59189620
      4.91000000	     85.05666383	     13.88892982	    -11.05038274	      0.38362519	     -0.61295175	      0.60020812	      2.34092256	     -7.27091011	     33.17969987	    -45.72166077	    -17.06833409	    -15.64677320	      6.80805926	     13.60581788	     17.62443996	     -1.01020089	     -5.31999480	    -14.35619271
      4.92000000	     85.07118713	     12.88951006	    -11.02654015	      0.39080377	     -0.61354766	      0.60055860	      2.45478233	     -6.60382356	     34.89898645	    -46.04176502	    -16.60216931	    -16.08749391	      7.07670286	     13.90806327	     16.43229913	     -0.11116805	     -5.78614051	    -14.19851283
      4.93000000	     85.04147892	     11.85401218	    -10.97664183	      0.39798563	     -0.61404739	      0.60072660	      2.65079756	     -5.99617316	     36.56274024	    -46.18045131	    -16.47641049	    -16.19827042	      7.36173453	     14.25375402	     15.29475654	      0.61751996	     -5.82992773	    -13.98330933
      4.94000000	     84.95716932	     10.83552669	    -10.91062936	      0.40520909	     -0.61446518	      0.60071540	      2.96261837	     -5.52518518	     38.16080862	    -46.11296336	    -16.31004658	    -16.28380859	      7.68812159	     14.59822903	     14.19107211	      1.23408903	     -5.92239412	    -13.76831798
      4.95000000	     84.82537276	      9.84515751	    -10.83899520	      0.41251837	     -0.61480236	      0.60054547	      3.39038029	     -5.21031858	     39.66270894	    -45.80039944	    -16.14717716	    -16.30510588	      8.05078070	     14.96211067	     13.11212638	      1.76327197	     -6.03733537	    -13.58339577
      4.96000000	     84.64833857	      8.86659044	    -10.75727106	      0.41994018	     -0.61505095	      0.60022483	      3.92170206	     -5.01040435	     41.03019382	    -45.22010463	    -16.06197161	    -16.26087337	      8.44641962	     15.31552167	     12.06763017	      2.16699141	     -6.10338298	    -13.44065808
      4.97000000	     84.43443124	      7.92126002	    -10.67417621	      0.42752375	     -0.61521647	      0.59977824	      4.55267444	     -4.96347447	     42.22806646	    -44.34280348	    -16.03541211	    -16.17324689	      8.87001628	     15.68613267	     11.04000794	      2.48716896	     -6.13654669	    -13.32338916
      4.98000000	     84.19115091	      7.01630312	    -10.58674904	      0.43530096	     -0.61530196	      0.59922265	      5.27346822	     -5.09025034	     43.21270143	    -43.15413142	    -16.06030588	    -16.05795698	      9.31684606	     16.08474583	     10.02323791	      2.72389045	     -6.15014080	    -13.22849867
      4.99000000	     83.93367798	      6.18289967	    -10.52530376	      0.44332506	     -0.61531000	      0.59856996	      6.06763495	     -5.41951478	     43.98996040	    -41.66249679	    -16.12683532	    -15.94397583	      9.76953379	     16.42902979	      9.03672491	      2.90575409	     -6.15093386	    -13.16527808
      5.00000000	     83.66823438	      5.36630035	    -10.42953341	      0.45160379	     -0.61522637	      0.59785119	      6.89523967	     -5.89911458	     44.45402686	    -39.87891175	    -16.23972640	    -15.84270302	     10.22194624	     16.82854438	      8.04996641	      2.95412900	     -6.15755165	    -13.11628928
